<svg xmlns="http://www.w3.org/2000/svg" width="51.25" height="51.384" viewBox="0 0 51.25 51.384"><path d="M19.8,51.384a1.268,1.268,0,0,1,0-2.535h5.553V43.591a1.268,1.268,0,1,1,2.535,0v5.257h3.625a1.268,1.268,0,1,1,0,2.535Zm27.458-.355a1.284,1.284,0,0,1-1.2-1.344l1.132-20.714a1.409,1.409,0,0,1,.558-1,1.559,1.559,0,0,1,.845-.364c.3-9.238-.144-12.356-.389-13.336h-1.09v.085a3.981,3.981,0,0,1-6.872,0,.144.144,0,0,0-.05-.068c-.845.118-6.761,1.09-10.336,1.69l9.11.845a1.267,1.267,0,0,1,1.175,1.2V29.013l1.132,20.646A1.285,1.285,0,0,1,40.076,51l-.111.025a1.275,1.275,0,0,1-1.267-1.2l-1.09-20.723v-9.93l-9.753-.9a2.307,2.307,0,0,1-.169-4.572c1.488-.254,11.883-1.978,12.364-2.012a2.535,2.535,0,0,1,2.443,1.471,1.479,1.479,0,0,0,2.35,0,2.533,2.533,0,0,1,2.434-1.471h.583a6.536,6.536,0,0,1,1.538.127,1.231,1.231,0,0,1,.473.253c.541.456,1.792,1.522,1.242,16.708a1.376,1.376,0,0,1-.481,1.005,1.5,1.5,0,0,1-.93.364L48.595,49.829a1.259,1.259,0,0,1-1.258,1.2ZM42.4,49.761V32.233a1.268,1.268,0,0,1,2.535,0V49.761a1.268,1.268,0,0,1-2.535,0ZM33.314,41.2H1.268A1.268,1.268,0,0,1,0,39.932V4.437A1.266,1.266,0,0,1,1.268,3.2H18.534V1.268a1.268,1.268,0,1,1,2.535,0V3.2H32.055V1.268a1.268,1.268,0,1,1,2.535,0V3.2h.423a1.268,1.268,0,0,1,0,2.535H2.535V38.69H33.314a1.268,1.268,0,1,1,0,2.535ZM28.049,33.83a3.338,3.338,0,0,1-2.614-5.179l-5.695-11.42a3.364,3.364,0,0,1-.439.051v.042a3.365,3.365,0,0,1-2.01-.694l-5.31,3.982A3.338,3.338,0,0,1,8.7,24.627h.008a3.338,3.338,0,1,1,1.854-6.114L16,14.438a3.335,3.335,0,0,1,3.3-3.823,3.339,3.339,0,0,1,2.588,5.219l5.679,11.387a3.338,3.338,0,1,1,.649,6.613C28.162,33.834,28.106,33.833,28.049,33.83Zm0-4.133a.793.793,0,0,0-.794.8.8.8,0,0,0,1.6,0,.845.845,0,0,0-.845-.845ZM7.965,20.986a.8.8,0,1,0,1.441-.08q-.027-.039-.051-.08a.8.8,0,0,0-.642-.332H8.706A.8.8,0,0,0,7.965,20.986Zm10.771-7.557a.794.794,0,0,0,.872,1.291l.027-.012a1.279,1.279,0,0,1,.181-.116.795.795,0,0,0-.515-1.4h0A.79.79,0,0,0,18.736,13.429ZM39.543,6.541a4.124,4.124,0,0,1,8.249,0c0,2.088-1.606,5.122-4.125,5.122C41.132,11.663,39.543,8.629,39.543,6.541Zm2.535,0c0,1.174.972,2.587,1.589,2.587s1.589-1.412,1.589-2.587a1.59,1.59,0,1,0-3.178,0ZM19.3,10.615h0Z" fill="#49e0c3"/></svg>