<svg xmlns="http://www.w3.org/2000/svg" width="28.125" height="30" viewBox="0 0 28.125 30"><path d="M27.656,19.6,19.691,15l7.965-4.6A.937.937,0,0,0,28,9.124L26.123,5.876a.938.938,0,0,0-1.281-.343l-7.965,4.6V.938A.938.938,0,0,0,15.939,0H12.186a.938.938,0,0,0-.938.938v9.191l-7.965-4.6A.938.938,0,0,0,2,5.876L.126,9.124A.937.937,0,0,0,.469,10.4L8.434,15,.469,19.6a.937.937,0,0,0-.343,1.281L2,24.124a.939.939,0,0,0,1.281.343l7.965-4.6v9.19a.938.938,0,0,0,.938.938h3.752a.938.938,0,0,0,.938-.937V19.871l7.965,4.6a.938.938,0,0,0,1.281-.343L28,20.876A.937.937,0,0,0,27.656,19.6Z" transform="translate(0)" fill="#7de0cd"/></svg>
