<svg xmlns="http://www.w3.org/2000/svg" width="51.113" height="36.433" viewBox="0 0 51.113 36.433"><path d="M2.958,36.433A2.957,2.957,0,0,1,0,33.484V30.1a1.268,1.268,0,0,1,1.268-1.276H22.937A1.268,1.268,0,0,1,24.2,30.1v.3h2.7v-.3a1.268,1.268,0,0,1,1.267-1.268H49.846A1.268,1.268,0,0,1,51.113,30.1v3.38a2.957,2.957,0,0,1-2.957,2.957Zm-.44-2.949a.413.413,0,0,0,.423.414H48.155a.422.422,0,0,0,.422-.414V31.362H29.351a2.189,2.189,0,0,1-2.1,1.563H23.874a2.189,2.189,0,0,1-2.1-1.563H2.518Zm44.226-5.561a1.268,1.268,0,0,1-1.268-1.267V2.874a.338.338,0,0,0-.338-.338H5.975a.339.339,0,0,0-.338.338V26.621a1.268,1.268,0,1,1-2.535,0V2.874A2.874,2.874,0,0,1,5.975,0H45.138a2.873,2.873,0,0,1,2.874,2.874V26.621a1.267,1.267,0,0,1-1.264,1.3ZM29.6,24.4a2.655,2.655,0,0,1-2.33-3.894L21.6,11.84q-.1.008-.211.008a2.643,2.643,0,0,1-1.276-.322L15.06,14.705a1.321,1.321,0,0,1-.718.194,1.268,1.268,0,0,1-.676-2.341l5.073-3.189a2.651,2.651,0,1,1,5,1.057L29.411,19.1q.107-.008.216-.008a2.659,2.659,0,0,1,.637.078l4.943-5.308a2.655,2.655,0,1,1,1.92,1.626l-5,5.387A2.656,2.656,0,0,1,29.613,24.4Zm-.086-2.735a.121.121,0,0,0-.04.081c0,.127.262.127.262,0a.125.125,0,0,0-.015-.047q-.03-.026-.059-.053a.126.126,0,0,0-.061-.01H29.6A.119.119,0,0,0,29.518,21.664Zm8.217-8.843c-.068.262.228.194.228.068a.127.127,0,0,0-.135-.11h0A.118.118,0,0,0,37.735,12.821ZM21.3,9.094c-.068.27.229.194.229.076a.127.127,0,0,0-.135-.11v.034a.139.139,0,0,0-.094,0Z" fill="#49e0c3"/></svg>