<svg xmlns="http://www.w3.org/2000/svg" width="51.505" height="47.12" viewBox="0 0 51.505 47.12"><path d="M35.331,45.62V42.43a1.5,1.5,0,0,1,3,0V45.62a1.5,1.5,0,1,1-3,0ZM.651,41.54a1.511,1.511,0,0,1-.39-2.091l6.28-9.13a1.511,1.511,0,0,1,2.27-.24l4.87,4.61,5.89-10.63a1.5,1.5,0,0,1,1.95-.63l4.9,2.281,3-9.67a1.522,1.522,0,0,1,.91-1,1.54,1.54,0,0,1,1.32.13l1.454.906a4.4,4.4,0,0,1,2.226-1.8V12.33a1.5,1.5,0,1,1,3,0v1.943a4.38,4.38,0,0,1,1.129.611l2.981-3.634a1.49,1.49,0,0,1,2.4.11l6.41,9.58a1.5,1.5,0,0,1-.38,2.06,1.48,1.48,0,0,1-.869.27,1.511,1.511,0,0,1-1.25-.661l-5.28-7.9-2.33,2.851a4.393,4.393,0,0,1-2.81,4.963V24.48a1.5,1.5,0,1,1-3,.02V22.527a4.4,4.4,0,0,1-2.808-3.275l-.813-.5L28.781,28.2a1.51,1.51,0,0,1-2.07.921l-5.19-2.42-6.15,11.1a1.531,1.531,0,0,1-1.09.75A1.5,1.5,0,0,1,13,38.2L8,33.46,2.74,41.15A1.507,1.507,0,0,1,1.5,41.8,1.572,1.572,0,0,1,.651,41.54Zm36.18-24.53a.577.577,0,1,0,0-.01Zm-1.5,21.97v-7.6a1.5,1.5,0,1,1,3,0V39a1.5,1.5,0,0,1-3-.02Zm0-34.3V1.5a1.5,1.5,0,1,1,3,0V4.68a1.5,1.5,0,1,1-3,0Z" transform="translate(0)" fill="#59dfc3"/></svg>
