<svg xmlns="http://www.w3.org/2000/svg" width="50.749" height="50.708" viewBox="0 0 50.749 50.708"><path d="M0,40.845c0-4.318,6.364-7.86,16.6-9.3a1.279,1.279,0,1,1,.346,2.535C7.488,35.377,2.578,38.462,2.578,40.845c0,3.465,9.381,7.328,22.819,7.328s22.818-3.863,22.818-7.328c0-2.341-4.859-5.4-14.147-6.71a1.28,1.28,0,0,1,.355-2.535c10.066,1.42,16.328,4.961,16.328,9.22.026,6.431-13.056,9.888-25.362,9.888C13.1,50.708,0,47.251,0,40.845Zm20.722,1.842-.938-17.452a1.478,1.478,0,0,1-.845-.346,1.334,1.334,0,0,1-.473-1c-.516-13.649.625-14.6,1.175-15.06a1.221,1.221,0,0,1,.473-.254,7.914,7.914,0,0,1,1.436-.11h.516A2.433,2.433,0,0,1,24.39,9.846a1.276,1.276,0,0,0,1.944,0,2.458,2.458,0,0,1,2.324-1.378h.516a7.914,7.914,0,0,1,1.436.11,1.221,1.221,0,0,1,.473.254c.55.456,1.69,1.411,1.175,15.06a1.369,1.369,0,0,1-.448,1.039,1.48,1.48,0,0,1-.845.347L30,42.679a1.277,1.277,0,0,1-1.242,1.209h-.076a1.269,1.269,0,0,1-1.217-1.336L28.5,24.018a1.392,1.392,0,0,1,.473-.98,1.472,1.472,0,0,1,.794-.347c.254-7.919-.118-10.733-.337-11.68H28.6a3.6,3.6,0,0,1-3.237,1.826,3.549,3.549,0,0,1-3.228-1.826H21.3c-.22.947-.591,3.761-.338,11.68a1.469,1.469,0,0,1,.794.347,1.4,1.4,0,0,1,.473,1l1.031,18.517a1.271,1.271,0,0,1-1.2,1.336l-.068,0A1.27,1.27,0,0,1,20.722,42.687Zm3.4-.068V26.951a1.268,1.268,0,0,1,2.535,0V42.619a1.268,1.268,0,1,1-2.535,0ZM21.483,3.9a3.9,3.9,0,0,1,7.809,0c0,1.936-1.522,4.758-3.905,4.758S21.483,5.84,21.483,3.9Zm2.535,0c0,.981.845,2.223,1.369,2.223s1.37-1.242,1.37-2.223a1.369,1.369,0,0,0-2.739,0Z" fill="#49e0c3"/></svg>