<svg xmlns="http://www.w3.org/2000/svg" xmlns:xlink="http://www.w3.org/1999/xlink" width="1920" height="187" viewBox="0 0 1920 187">
    <defs>
        <linearGradient id="mask-3-grad" x1="1" x2="0" gradientUnits="objectBoundingBox">
            <stop offset="0" stop-color="#fff" stop-opacity="1"/>
            <stop offset="1" stop-color="var(--gradient-gray)" stop-opacity="1"/>
        </linearGradient>
    </defs>
    <path d="M1920,187V177h0v-8.87c-32.492,3-66.109,5.258-99.917,6.723-32.58,1.412-66.339,2.128-100.339,2.128-32.855,0-66.963-.669-101.374-1.988-32.816-1.257-66.982-3.147-101.549-5.617-32.71-2.337-66.891-5.274-101.594-8.728-32.486-3.234-66.64-7.043-101.511-11.321-61.194-7.508-127.353-16.779-202.256-28.345-68.065-10.509-136.311-21.814-200.38-32.492l-24.211-4.037-.165-.028c-62.871-10.488-127.882-21.332-190.956-31.25C625.082,42.063,563.8,33.224,508.408,26.153c-66.332-8.467-126.07-14.677-182.629-18.985-30.606-2.331-60.637-4.113-89.257-5.3C206.523.629,177.006,0,148.791,0c-25.528,0-50.78.515-75.057,1.531C48.684,2.579,23.876,4.193,0,6.33V177H0v10ZM1920,177Z" fill="url(#mask-3-grad)"/>
</svg>
