<svg xmlns="http://www.w3.org/2000/svg" xmlns:xlink="http://www.w3.org/1999/xlink" width="1920" height="187" viewBox="0 0 1920 187">
    <defs>
        <linearGradient id="mask-2-grad" x1="1" x2="0" gradientUnits="objectBoundingBox">
            <stop offset="0" stop-color="var(--gradient-gray)" stop-opacity="1"/>
            <stop offset="1" stop-color="#fff" stop-opacity="1"/>
        </linearGradient>
    </defs>
    <path d="M1920,0V10h0v8.87c-32.492-3-66.109-5.258-99.917-6.723-32.58-1.412-66.339-2.128-100.339-2.128-32.855,0-66.963.669-101.374,1.988-32.816,1.257-66.982,3.147-101.549,5.617-32.71,2.337-66.891,5.274-101.594,8.728-32.486,3.234-66.64,7.043-101.511,11.321-61.194,7.508-127.353,16.779-202.256,28.345-68.065,10.509-136.311,21.814-200.38,32.492l-24.211,4.037-.165.028c-62.871,10.488-127.882,21.332-190.956,31.25-70.666,11.111-131.946,19.95-187.339,27.022-66.332,8.467-126.07,14.677-182.629,18.985-30.606,2.331-60.637,4.113-89.257,5.3-30,1.242-59.516,1.871-87.731,1.871-25.528,0-50.78-.515-75.057-1.531-25.051-1.048-49.858-2.662-73.733-4.8V10H0V0ZM1920,10Z" fill="url(#mask-2-grad)"/>
</svg>
