<svg xmlns="http://www.w3.org/2000/svg" width="260" height="44.703" viewBox="0 0 260 44.703">
    <g transform="translate(-142 4791)">
        <path class="txt" d="M328.246,73.007l-.078-12.244-5.839,9.83h-3.993l-5.833-9.4V73.011H304.25V46.144H311.7l8.749,14.313,8.519-14.317h7.449l.076,26.867Z" transform="translate(-96.329 -4827.143)" fill="#034c66"/>
        <path class="txt" d="M490.2,84.376H475.609c.615,1.612,2.073,2.457,4.223,2.457a6.41,6.41,0,0,0,4.377-1.536l4.528,4.567c-2.034,2.227-4.983,3.378-9.174,3.378-7.716,0-12.7-4.643-12.7-10.9,0-6.37,5.1-10.862,11.9-10.862,6.218,0,11.553,3.761,11.553,10.862C490.31,82.955,490.234,83.761,490.2,84.376Zm-14.733-4.184h6.753a3.439,3.439,0,0,0-6.758,0Z"
        transform="translate(-223.707 -4846.993)"
        fill="#034c66"/>
        <path class="txt" d="M623.893,80.873V92.848h-8.667V82.37c0-2.6-.958-3.607-2.34-3.607-1.536,0-2.726,1.036-2.726,3.837V92.848h-8.667V82.37c0-2.6-.884-3.607-2.342-3.607-1.536,0-2.726,1.036-2.726,3.837V92.848H587.76V71.854h8.251V73.8a8.121,8.121,0,0,1,5.928-2.333,7.505,7.505,0,0,1,6.563,3.187,8.9,8.9,0,0,1,7.024-3.187C620.286,71.47,623.893,74.271,623.893,80.873Z"
        transform="translate(-318.412 -4846.985)"
        fill="#034c66"/>
        <path class="txt" d="M791.845,84.376H777.261c.613,1.612,2.071,2.457,4.221,2.457a6.41,6.41,0,0,0,4.377-1.536l4.528,4.567c-2.035,2.227-4.983,3.378-9.174,3.378-7.715,0-12.7-4.643-12.7-10.9,0-6.37,5.1-10.862,11.9-10.862,6.218,0,11.553,3.761,11.553,10.862C791.96,82.955,791.884,83.761,791.845,84.376Zm-14.733-4.184h6.754a3.439,3.439,0,0,0-6.758,0Z"
        transform="translate(-460 -4846.993)"
        fill="#034c66"/>
        <path class="txt" d="M912.548,80.873V92.848h-8.667V82.37c0-2.6-1-3.607-2.572-3.607-1.766,0-3.263,1.114-3.263,4.223v9.863H889.38V71.854h8.238v2.074a8.74,8.74,0,0,1,6.333-2.457C908.8,71.47,912.548,74.271,912.548,80.873Z"
        transform="translate(-554.681 -4846.985)"
        fill="#034c66"/>
        <path class="txt" d="M1022.177,76.438a11.209,11.209,0,0,1-5.334,1.111c-5.8,0-9.174-2.723-9.174-8.519V63.657H1004.8V57.324h2.877V51.45h8.667v5.874h4.316v6.333h-4.3v5.3a1.805,1.805,0,0,0,1.8,2.035,3.529,3.529,0,0,0,1.95-.576Z"
        transform="translate(-645.093 -4831.302)"
        fill="#034c66"/>
        <path class="txt" d="M1087.34,82.331c0-6.37,5.1-10.861,12.2-10.861,7.139,0,12.2,4.492,12.2,10.861s-5.066,10.9-12.2,10.9C1092.445,93.232,1087.34,88.7,1087.34,82.331Zm15.62,0c0-2.723-1.495-4.106-3.415-4.106s-3.417,1.376-3.417,4.106,1.5,4.147,3.417,4.147S1102.959,85.057,1102.959,82.331Z"
        transform="translate(-709.75 -4846.985)"
        fill="#034c66"/>
        <path d="M.98,0,49.26,44.62.98,44.7Z" transform="translate(141.232 -4791)" fill="#43b29d"/>
        <path d="M49.26,0,.98,44.62l48.28.082Z" transform="translate(141.232 -4791)" fill="#8ed1c4"/>
        <path d="M0,125.47l24.141.041,24.141-.041L24.141,103.16Z" transform="translate(142 -4871.809)" fill="#328676"/></g>
</svg>
