<svg xmlns="http://www.w3.org/2000/svg" width="51.569" height="39.746" viewBox="0 0 51.569 39.746"><path d="M4.648,39.746A4.657,4.657,0,0,1,0,35.081V8.037A4.657,4.657,0,0,1,4.648,3.406h25.4a1.268,1.268,0,0,1,0,2.535H4.648a2.113,2.113,0,0,0-2.113,2.1V35.081a2.113,2.113,0,0,0,2.113,2.129H41.834a2.113,2.113,0,0,0,2.112-2.129V21.559a1.268,1.268,0,0,1,2.535,0V35.081a4.656,4.656,0,0,1-4.648,4.665ZM37.185,31.7V24.94a1.268,1.268,0,1,1,2.535,0V31.7a1.268,1.268,0,0,1-2.535,0Zm-5.071,0V21.559a1.268,1.268,0,0,1,2.535,0V31.7a1.268,1.268,0,0,1-2.535,0Zm-5.071,0V23.512a1.268,1.268,0,1,1,2.535,0V31.7a1.268,1.268,0,0,1-2.535,0Zm-5.071,0V13.336a1.268,1.268,0,1,1,2.535,0V31.7a1.268,1.268,0,0,1-2.535,0Zm-5.071,0V21.559a1.268,1.268,0,0,1,2.535,0V31.7a1.268,1.268,0,0,1-2.535,0Zm-5.072,0V18.28a1.268,1.268,0,0,1,2.535,0V31.7a1.268,1.268,0,0,1-2.535,0Zm-5.071,0V24.94a1.268,1.268,0,1,1,2.535,0V31.7a1.268,1.268,0,0,1-2.535,0Zm35.073-12.28a9.721,9.721,0,1,1,.017,0ZM34.684,9.7a7.175,7.175,0,1,0,7.15-7.156V2.518A7.175,7.175,0,0,0,34.684,9.7Zm7.031,4.625a1.267,1.267,0,0,1-1.267-1.267V9.389l-1.369,1.369a1.27,1.27,0,0,1-1.8-1.792l3.542-3.541a1.275,1.275,0,0,1,1.792,0l3.55,3.541a1.277,1.277,0,0,1,0,1.792,1.266,1.266,0,0,1-1.792,0L42.983,9.382v3.726a1.267,1.267,0,0,1-1.266,1.217Z" fill="#49e0c3"/></svg>