<svg xmlns="http://www.w3.org/2000/svg" width="50.893" height="48.146" viewBox="0 0 50.893 48.146"><path d="M1.268,48.146A1.268,1.268,0,0,1,0,46.9V31.692A1.268,1.268,0,0,1,1.268,30.4H9.719a1.268,1.268,0,0,1,1.268,1.292v.995c5.74-.76,10.08-.692,12.913.206l11.6,3.659a3.817,3.817,0,0,1,1.786,1.142l7.984-3.914a3.718,3.718,0,0,1,5.13,1.783,4.066,4.066,0,0,1-1.775,5.578c-2.408,1.174-4.352,2.146-5.916,2.949-7.64,3.794-7.961,3.947-12.762,3.947a32.788,32.788,0,0,1-14.367-3.55c-.511-.244-2.006-.267-4.6.395V46.9a1.268,1.268,0,0,1-1.268,1.242Zm1.267-2.535H8.452V34.346a1.278,1.278,0,0,1,0-.376V32.935H2.535ZM16.641,42.2a30.434,30.434,0,0,0,13.31,3.3c4.226,0,4.226,0,11.587-3.677,1.615-.845,3.567-1.783,5.975-2.958a1.581,1.581,0,0,0,.617-2.189,1.184,1.184,0,0,0-1.741-.617l-8.139,3.99a4.515,4.515,0,0,1-1.369,3.608,3.506,3.506,0,0,1-2.4.921,3.97,3.97,0,0,1-1.2-.2l-12.2-3.829a1.268,1.268,0,0,1,.761-2.417l12.195,3.846a1.056,1.056,0,0,0,1.124-.2,1.945,1.945,0,0,0,.516-1.775,1.286,1.286,0,0,0-.938-1.006l-11.6-3.659c-2.5-.794-6.684-.8-12.153-.054v6.987a15.908,15.908,0,0,1,3.478-.465A4.963,4.963,0,0,1,16.641,42.2ZM10.514,26.149a1.268,1.268,0,0,1-.845-2.173l4.268-4.183a1.268,1.268,0,1,1,1.7,1.809l-2.054,2.011H46.456L44.42,21.6A1.268,1.268,0,0,1,46.2,19.8l4.226,4.184a1.268,1.268,0,0,1-.9,2.164Zm0-8.452a1.267,1.267,0,0,1-.845-2.172L13.937,11.3a1.268,1.268,0,0,1,1.7,1.859l-2.054,2H46.456L44.42,13.15a1.268,1.268,0,1,1,1.784-1.8l4.226,4.183a1.267,1.267,0,0,1-.9,2.164Zm0-8.451a1.276,1.276,0,0,1-1.166-.769A1.292,1.292,0,0,1,9.592,7.1L15.981.423A1.252,1.252,0,0,1,16.9,0H43.212a1.287,1.287,0,0,1,.93.4l6.313,6.71a1.268,1.268,0,0,1-.921,2.138ZM13.471,6.71H46.6L42.679,2.543H17.444Z" transform="translate(0)" fill="#49e0c3"/></svg>