<svg xmlns="http://www.w3.org/2000/svg" width="47.272" height="50.639" viewBox="0 0 47.272 50.639"><path d="M0,27.61A23.031,23.031,0,0,1,21.762,4.615V1.268a1.268,1.268,0,1,1,2.535,0V4.615a22.936,22.936,0,0,1,14.082,5.826l3.8-3.808-1.143-1.14A1.268,1.268,0,0,1,42.831,3.7l1.911,1.927a1.276,1.276,0,0,1,.247.249L46.9,7.809a1.276,1.276,0,0,1,0,1.791,1.212,1.212,0,0,1-1.75,0L43.978,8.426l-3.808,3.8A23.03,23.03,0,1,1,0,27.61Zm2.535.012a20.494,20.494,0,1,0,20.494-20.5A20.494,20.494,0,0,0,2.535,27.622Zm16.759-.012A3.736,3.736,0,0,1,21.762,24.1V11.688a1.268,1.268,0,1,1,2.535,0V24.1a3.735,3.735,0,1,1-5,3.514Zm2.535,0a1.2,1.2,0,1,0,1.2-1.2A1.2,1.2,0,0,0,21.83,27.61Z" fill="#49e0c3"/></svg>