<svg xmlns="http://www.w3.org/2000/svg" width="60.957" height="102.478" viewBox="0 0 60.957 102.478"><path d="M25.312,90.038a4.935,4.935,0,0,1,5.136-4.644,4.935,4.935,0,0,1,5.135,4.613c0,.154-1.03,12.471-5.135,12.471S25.312,90.175,25.312,90.038Zm3.075-.032a31.271,31.271,0,0,0,2.061,8.858,31.3,31.3,0,0,0,2.06-8.858,1.907,1.907,0,0,0-2.06-1.537v-.046c-.061-.006-.122-.009-.182-.009A1.906,1.906,0,0,0,28.387,90.006Zm21.759,0a4.505,4.505,0,1,1,9,0c0,.123-.707,11.78-4.505,11.78C50.823,101.786,50.146,90.13,50.146,90.006Zm3.075,0A36.431,36.431,0,0,0,54.636,97.7a35.524,35.524,0,0,0,1.43-7.689,1.422,1.422,0,1,0-2.845,0Zm-51.484,0a4.513,4.513,0,1,1,9.026,0c0,.122-.707,11.779-4.521,11.779S1.738,90.13,1.738,90.007Zm4.505-1.43a1.43,1.43,0,0,0-1.43,1.43A36.5,36.5,0,0,0,6.243,97.7a35.529,35.529,0,0,0,1.445-7.689,1.429,1.429,0,0,0-1.429-1.43Zm15.1-8.87V75.08L9.765,73.7a1.538,1.538,0,0,1-1.338-1.338c0-.508-.369-5.074,6.92-10.764a14.66,14.66,0,0,0,6-11.149q0-.048,0-.1V33.529c0-6.694,4.766-14.048,9.1-14.048s9.226,7.354,9.226,14.048V50.885a14.47,14.47,0,0,0,5.89,10.586c7.289,5.72,6.966,10.288,6.92,10.764a1.538,1.538,0,0,1-1.337,1.338L39.674,74.948v4.759c-.046,1.378-.046,2.949-9.226,2.949C21.344,82.656,21.344,81.085,21.344,79.707Zm3.075-1.358a36.04,36.04,0,0,0,6.028.466,37.821,37.821,0,0,0,6.151-.466V74.327a1.542,1.542,0,0,1,0-1.29V50.927q-.022-.354-.031-.712a1.55,1.55,0,0,1,.031-.246V33.529c0-5.142-3.86-10.167-6.151-10.167S24.42,28.388,24.42,33.529V73.278a1.55,1.55,0,0,1,0,1.066ZM17.239,64.015c-3.814,3.076-5.106,5.475-5.536,6.859l9.642,1.187V59.752A17.717,17.717,0,0,1,17.239,64.015Zm22.435,7.91,9.535-1.181c-.431-1.369-1.707-3.86-5.536-6.859a17.454,17.454,0,0,1-4-4.115ZM58.911,77.15a1.538,1.538,0,0,1-1.538-1.538l.492-37.137a11.533,11.533,0,0,0-2.814-6.151c-1.261,1.383-3.475,4-3.475,6.151l.292,19.991a1.538,1.538,0,1,1-3.076,0L48.5,38.475c0-3.568,3.075-6.981,4.613-8.611l.354-.4a2.2,2.2,0,0,1,3.229,0c1.292,1.445,4.26,5.213,4.26,9L60.465,75.6a1.54,1.54,0,0,1-1.54,1.553ZM.508,75.612,0,38.506c0-3.844,2.984-7.565,4.26-9.011A2.134,2.134,0,0,1,5.8,28.757a2.136,2.136,0,0,1,1.615.738l.153.154c1.354,1.537,4.613,5.12,4.613,8.842L11.887,58.62a1.538,1.538,0,1,1-3.076,0L9.1,38.506c0-2.153-1.984-4.705-3.214-6.151a11.626,11.626,0,0,0-2.814,6.151l.508,37.106a1.538,1.538,0,1,1-3.075,0ZM17.285,40.257a1.538,1.538,0,0,1-1.538-1.538L15.208,21.8C15.208,15.791,19.514,8.78,28,.937a3.658,3.658,0,0,1,4.89,0C41.151,8.626,45.5,15.761,45.5,21.757l-.538,17.008a1.539,1.539,0,0,1-3.075-.108l.553-16.915c0-5.074-4.029-11.487-11.641-18.453a.554.554,0,0,0-.707,0C22.252,10.517,18.284,16.775,18.284,21.85l.538,16.916A1.538,1.538,0,0,1,17.285,40.3Zm10.5-5.58a1.54,1.54,0,0,1-.338-2.153,3.764,3.764,0,0,1,3.075-1.538A3.72,3.72,0,0,1,33.6,32.524a1.566,1.566,0,0,1-2.552,1.814.784.784,0,0,0-1.107,0,1.542,1.542,0,0,1-2.153.338Z" fill="#80ffe7"/></svg>
