<svg xmlns="http://www.w3.org/2000/svg" width="41.411" height="46.865" viewBox="0 0 41.411 46.865"><path d="M1.268,46.865A1.268,1.268,0,0,1,0,45.6V35.456a1.268,1.268,0,0,1,1.268-1.268H11.409a1.268,1.268,0,0,1,1.267,1.268V45.6a1.268,1.268,0,0,1-1.267,1.268Zm1.267-2.536h7.606V36.723H2.535ZM16.48,41.845a1.268,1.268,0,0,1,0-2.536H40.144a1.268,1.268,0,0,1,0,2.536ZM1.268,29.962A1.268,1.268,0,0,1,0,28.694V18.553a1.268,1.268,0,0,1,1.268-1.267H11.409a1.267,1.267,0,0,1,1.267,1.267V28.694a1.268,1.268,0,0,1-1.267,1.268Zm1.267-2.535h7.606V19.821H2.535ZM16.48,24.942a1.268,1.268,0,1,1,0-2.535H40.144a1.268,1.268,0,0,1,0,2.535ZM4.834,13.432a1.3,1.3,0,0,1-.93-.406L.338,9.189A1.267,1.267,0,0,1,2.2,7.5l2.595,2.788L13.1.433a1.278,1.278,0,0,1,1.918,1.69L5.806,12.983a1.308,1.308,0,0,1-.938.448ZM16.48,8.04a1.268,1.268,0,1,1,0-2.535H40.144a1.268,1.268,0,0,1,0,2.535Z" fill="#49e0c3"/></svg>